{"title":"18+ Even Lambs Have Teeth 2015 Movies HDRip XviD New +Sample ☻rD","uid":14915435,"size":739263897,"categoryP":"video","categoryS":"movies","magnet":"?xt=urn:btih:ab5a74e8d12e9d0a46ccb9c936203d22a617aa44&amp;dn=18%2B+Even+Lambs+Have+Teeth+2015+Movies+HDRip+XviD+New+%2BSample+%E2%98%BBrD&amp;tr=udp%3A%2F%2Ftracker.leechers-paradise.org%3A6969&amp;tr=udp%3A%2F%2Fzer0day.ch%3A1337&amp;tr=udp%3A%2F%2Fopen.demonii.com%3A1337&amp;tr=udp%3A%2F%2Ftracker.coppersurfer.tk%3A6969&amp;tr=udp%3A%2F%2Fexodus.desync.com%3A6969","seeders":0,"leechers":1,"uploader":"basicssom","files":2,"time":1465886546,"description":"----------------------------------------------------------------\r\n18+ Even Lambs Have Teeth 2015 English Movies HDRip XviD AAC New Source with Sample ☻rDX☻\r\n\r\nSCREEN SHOTS &amp; POSTER:\r\n  \nhttp://mobileshosting.com/2016/6/rent/index.htm  \nhttp://mobileshosting.com/2016/6/rent/1.html  \nhttp://mobileshosting.com/2016/6/rent/2.html  \nhttp://mobileshosting.com/2016/6/rent/3.html  \nhttp://mobileshosting.com/2016/6/rent/4.html  \nhttp://mobileshosting.com/2016/6/rent/5.html  \nhttp://mobileshosting.com/2016/6/rent/6.html  \nhttp://mobileshosting.com/2016/6/rent/7.html  \nhttp://mobileshosting.com/2016/6/rent/8.html  \nhttp://mobileshosting.com/2016/6/rent/9.html  \nhttp://mobileshosting.com/2016/6/rent/10.html\r\n\r\nFormat                                   : Matroska\r\nFormat version                           : Version 4 / Version 2\r\nFile size                                : 695 MiB\r\nDuration                                 : 1h 18mn\r\nOverall bit rate                         : 1 233 Kbps\r\nMovie name                               : Even Lambs Have Teeth 2015 English Movies HDRip XviD AAC New Source ☻rDX☻\r\n\r\nVideo\r\nID                                       : 1\r\nFormat                                   : MPEG-4 Visual\r\nFormat profile                           : Advanced   \r\nFormat settings, BVOP                    : Yes\r\nFormat settings, QPel                    : No\r\nFormat settings, GMC                     : No warppoints\r\nFormat settings, Matrix                  : Default (H.263)\r\nCodec ID                                 : V_MS/VFW/FOURCC / XVID\r\nCodec ID/Hint                            : XviD\r\nDuration                                 : 1h 18mn\r\nBit rate                                 : 1 081 Kbps\r\nWidth                                    : 640 pixels\r\nHeight                                   : 280 pixels\r\nDisplay aspect ratio                     : 2.25:1\r\nFrame rate mode                          : Constant\r\nFrame rate                               : 23.976 fps\r\nColor space                              : YUV\r\nChroma subsampling                       : 4:2:0\r\nBit depth                                : 8 bits\r\nScan type                                : Progressive\r\nCompression mode                         : Lossy\r\nBits/(Pixel*Frame)                       : 0.251\r\nStream size                              : 609 MiB (88%)\r\nTitle                                    : ☻rDX☻\r\nWriting library                          : XviD 65\r\nDefault                                  : Yes\r\nForced                                   : No\r\n\r\nAudio\r\nID                                       : 2\r\nFormat                                   : MPEG Audio\r\nFormat version                           : Version 1\r\nFormat profile                           : Layer 3\r\nMode                                     : Joint stereo\r\nMode extension                           : MS Stereo\r\nCodec ID                                 : A_MPEG/L3\r\nCodec ID/Hint                            : MP3\r\nDuration                                 : 1h 18mn\r\nBit rate mode                            : Constant\r\nBit rate                                 : 128 Kbps\r\nChannel(s)                               : 2 channels\r\nSampling rate                            : 48.0 KHz\r\nCompression mode                         : Lossy\r\nStream size                              : 72.2 MiB (10%)\r\nTitle                                    : ☻rDX☻\r\nWriting library                          : LAME3.99r\r\nEncoding settings                        : -m j -V 4 -q 3 -lowpass 17 -b 128\r\nDefault                                  : Yes\r\nForced                                   : No\r\n\r\nIMDB \nhttp://www.imdb.com/title/tt4147210/","torrent":{"xt":"urn:btih:ab5a74e8d12e9d0a46ccb9c936203d22a617aa44","amp;dn":"18%2B+Even+Lambs+Have+Teeth+2015+Movies+HDRip+XviD+New+%2BSample+%E2%98%BBrD","amp;tr":["udp%3A%2F%2Ftracker.leechers-paradise.org%3A6969","udp%3A%2F%2Fzer0day.ch%3A1337","udp%3A%2F%2Fopen.demonii.com%3A1337","udp%3A%2F%2Ftracker.coppersurfer.tk%3A6969","udp%3A%2F%2Fexodus.desync.com%3A6969"],"infoHash":"ab5a74e8d12e9d0a46ccb9c936203d22a617aa44","infoHashBuffer":{"type":"Buffer","data":[171,90,116,232,209,46,157,10,70,204,185,201,54,32,61,34,166,23,170,68]},"announce":[],"urlList":[]}}